grf
version=1
nRows=20
nColumns=19
inDegrees=yes
endheader
time	ground_force_1_vx	ground_force_1_vy	ground_force_1_vz	ground_force_1_px	ground_force_1_py	ground_force_1_pz	ground_moment_1_mx	ground_moment_1_my	ground_moment_1_mz	ground_force_2_vx	ground_force_2_vy	ground_force_2_vz	ground_force_2_px	ground_force_2_py	ground_force_2_pz	ground_moment_2_mx	ground_moment_2_my	ground_moment_2_mz
10.537000	3.810366	1284.007977	-124.316110	0.146041	0.000000	-1.049361	-0.000000	19.375604	0.000000	36.106362	1281.167681	134.182622	0.145495	0.000000	-1.390037	-0.000000	-19.973961	-0.000000
10.538000	3.744324	1283.596927	-124.176571	0.146174	0.000000	-1.049014	-0.000000	19.376046	0.000000	36.073167	1280.916622	134.231834	0.145309	0.000000	-1.391413	-0.000000	-19.951049	-0.000000
10.539000	3.686615	1283.214122	-124.059600	0.145540	0.000000	-1.050853	-0.000000	19.376611	0.000000	36.036877	1280.649574	134.279223	0.145446	0.000000	-1.391999	-0.000000	-19.928691	-0.000000
10.540000	3.638044	1282.862018	-123.964977	0.145889	0.000000	-1.050171	-0.000000	19.377236	0.000000	35.997890	1280.368435	134.324662	0.145880	0.000000	-1.390839	-0.000000	-19.906876	-0.000000
10.541000	3.599027	1282.543240	-123.892365	0.146442	0.000000	-1.052247	-0.000000	19.377851	0.000000	35.956590	1280.076071	134.367991	0.145986	0.000000	-1.388309	-0.000000	-19.885573	-0.000000
10.542000	3.569676	1282.260064	-123.841256	0.146085	0.000000	-1.050002	-0.000000	19.378376	0.000000	35.913325	1279.775693	134.409070	0.145432	0.000000	-1.390135	-0.000000	-19.864734	-0.000000
10.543000	3.549914	1282.014301	-123.810916	0.146194	0.000000	-1.049903	-0.000000	19.378722	0.000000	35.868335	1279.469591	134.447790	0.145996	0.000000	-1.387019	-0.000000	-19.844279	-0.000000
10.544000	3.539454	1281.807900	-123.800437	0.146195	0.000000	-1.049476	-0.000000	19.378797	0.000000	35.821754	1279.158265	134.484064	0.145710	0.000000	-1.390031	-0.000000	-19.824101	-0.000000
10.545000	3.537762	1281.643591	-123.808851	0.145944	0.000000	-1.049612	-0.000000	19.378531	0.000000	35.773674	1278.840555	134.517819	0.145645	0.000000	-1.390115	-0.000000	-19.804094	-0.000000
10.546000	3.544175	1281.524733	-123.835160	0.146423	0.000000	-1.049779	-0.000000	19.377873	0.000000	35.724214	1278.514304	134.548997	0.145833	0.000000	-1.389280	-0.000000	-19.784173	-0.000000
10.547000	3.558060	1281.454526	-123.878305	0.145398	0.000000	-1.051554	-0.000000	19.376791	0.000000	35.673556	1278.176776	134.577549	0.145856	0.000000	-1.391451	-0.000000	-19.764288	-0.000000
10.548000	3.578901	1281.435238	-123.937164	0.145787	0.000000	-1.050877	-0.000000	19.375251	0.000000	35.621962	1277.824906	134.603423	0.146127	0.000000	-1.391161	-0.000000	-19.744426	-0.000000
10.549000	3.606267	1281.467910	-124.010553	0.146021	0.000000	-1.050548	-0.000000	19.373209	0.000000	35.569723	1277.455918	134.626532	0.146120	0.000000	-1.390683	-0.000000	-19.724596	-0.000000
10.550000	3.639750	1281.552508	-124.097263	0.146424	0.000000	-1.049083	-0.000000	19.370609	0.000000	35.517122	1277.067841	134.646768	0.145922	0.000000	-1.390559	-0.000000	-19.704811	-0.000000
10.551000	3.678943	1281.688364	-124.196131	0.145729	0.000000	-1.049050	-0.000000	19.367399	0.000000	35.464423	1276.659181	134.664053	0.146509	0.000000	-1.390348	-0.000000	-19.685100	-0.000000
10.552000	3.723495	1281.874609	-124.306112	0.146348	0.000000	-1.050030	-0.000000	19.363560	0.000000	35.411865	1276.228531	134.678350	0.147996	0.000000	-1.391729	-0.000000	-19.665499	-0.000000
10.553000	3.773127	1282.110469	-124.426297	0.146070	0.000000	-1.050756	-0.000000	19.359106	0.000000	35.359637	1275.774966	134.689655	0.146323	0.000000	-1.389595	-0.000000	-19.646034	-0.000000
10.554000	3.827633	1282.395416	-124.555912	0.146376	0.000000	-1.052082	-0.000000	19.354074	0.000000	35.307825	1275.298344	134.697981	0.146394	0.000000	-1.390230	-0.000000	-19.626708	-0.000000
10.555000	3.886912	1282.729051	-124.694303	0.146171	0.000000	-1.049189	-0.000000	19.348510	0.000000	35.256402	1274.798692	134.703331	0.147428	0.000000	-1.390659	-0.000000	-19.607508	-0.000000
10.556000	3.950940	1283.110809	-124.840840	0.145885	0.000000	-1.050016	-0.000000	19.342458	0.000000	35.205250	1274.275545	134.705667	0.146791	0.000000	-1.391521	-0.000000	-19.588417	-0.000000
